<?xml version="1.0"?>
<svg width="40" height="40" xmlns="http://www.w3.org/2000/svg" xmlns:svg="http://www.w3.org/2000/svg" enable-background="new 0 0 400 400" version="1.1" xml:space="preserve">
 <g class="layer">
  <title>Layer 1</title>
  <path d="m-166.66,200.6l0.34,0l0,-0.34l0.32,0l0,0.34l0.34,0l0,0.32l-0.34,0l0,0.34l-0.32,0l0,-0.34l-0.34,0l0,-0.32z" fill="#ff0000" id="svg_37" stroke="#000000"/>
  <g id="svg_38">
   <g id="svg_1">
    <g id="svg_2">
     <g id="svg_3">
      <rect fill="#E535AB" height="320.3" id="svg_4" transform="matrix(-0.0832906 -0.0480892 0.0480892 -0.0832906 25.3551 37.3627)" width="16.6" x="210.59" y="-31.68"/>
     </g>
    </g>
    <g id="svg_5">
     <g id="svg_6">
      <rect fill="#E535AB" height="1.6" id="svg_7" width="30.81" x="4.59" y="26.94"/>
     </g>
    </g>
    <g id="svg_8">
     <g id="svg_9">
      <rect fill="#E535AB" height="16.6" id="svg_10" transform="matrix(-0.0832906 -0.0480892 0.0480892 -0.0832906 17.6367 66.2189)" width="185" x="126.49" y="280.92"/>
     </g>
    </g>
    <g id="svg_11">
     <g id="svg_12">
      <rect fill="#E535AB" height="16.6" id="svg_13" transform="matrix(-0.0832906 -0.0480892 0.0480892 -0.0832906 54.2106 29.6449)" width="185" x="265.69" y="39.82"/>
     </g>
    </g>
    <g id="svg_14">
     <g id="svg_15">
      <rect fill="#E535AB" height="185" id="svg_16" transform="matrix(-0.0480892 -0.0832906 0.0832906 -0.0480892 21.8417 24.7449)" width="16.6" x="183.19" y="-84.38"/>
     </g>
    </g>
    <g id="svg_17">
     <g id="svg_18">
      <rect fill="#E535AB" height="16.6" id="svg_19" transform="matrix(-0.0480892 -0.0832906 0.0832906 -0.0480892 35.2386 47.9484)" width="320.3" x="170.69" y="80.22"/>
     </g>
    </g>
    <g id="svg_20">
     <g id="svg_21">
      <rect fill="#E535AB" height="17.79" id="svg_22" width="1.6" x="5.81" y="11.1"/>
     </g>
    </g>
    <g id="svg_23">
     <g id="svg_24">
      <rect fill="#E535AB" height="17.79" id="svg_25" width="1.6" x="32.59" y="11.1"/>
     </g>
    </g>
    <g id="svg_26">
     <g id="svg_27">
      <rect fill="#E535AB" height="160.9" id="svg_28" transform="matrix(-0.0480892 -0.0832906 0.0832906 -0.0480892 21.8421 71.1188)" width="14.5" x="323.49" y="168.72"/>
     </g>
    </g>
    <path d="m36.3,29.42c-0.92,1.61 -2.98,2.15 -4.59,1.23c-1.61,-0.92 -2.15,-2.98 -1.23,-4.59c0.92,-1.61 2.98,-2.15 4.59,-1.23c1.62,0.93 2.16,2.98 1.23,4.59" fill="#E535AB" id="svg_29"/>
    <path d="m9.51,13.94c-0.92,1.61 -2.98,2.15 -4.59,1.23c-1.61,-0.92 -2.15,-2.98 -1.23,-4.59c0.92,-1.61 2.98,-2.15 4.59,-1.23c1.61,0.93 2.15,2.98 1.23,4.59" fill="#E535AB" id="svg_30"/>
    <path d="m3.7,29.42c-0.92,-1.61 -0.38,-3.65 1.23,-4.59c1.61,-0.92 3.65,-0.38 4.59,1.23c0.92,1.61 0.38,3.65 -1.23,4.59c-1.62,0.92 -3.66,0.38 -4.59,-1.23" fill="#E535AB" id="svg_31"/>
    <path d="m30.49,13.94c-0.92,-1.61 -0.38,-3.65 1.23,-4.59c1.61,-0.92 3.65,-0.38 4.59,1.23c0.92,1.61 0.38,3.65 -1.23,4.59c-1.61,0.92 -3.66,0.38 -4.59,-1.23" fill="#E535AB" id="svg_32"/>
    <path d="m20,38.83c-1.86,0 -3.36,-1.5 -3.36,-3.36c0,-1.86 1.5,-3.36 3.36,-3.36c1.86,0 3.36,1.5 3.36,3.36c0,1.85 -1.5,3.36 -3.36,3.36" fill="#E535AB" id="svg_33"/>
    <path d="m20,7.88c-1.86,0 -3.36,-1.5 -3.36,-3.36c0,-1.86 1.5,-3.36 3.36,-3.36c1.86,0 3.36,1.5 3.36,3.36c0,1.86 -1.5,3.36 -3.36,3.36" fill="#E535AB" id="svg_34"/>
   </g>
   <path d="m9.44,16.61l7.18,0l0,-7.19l6.76,0l0,7.19l7.18,0l0,6.77l-7.18,0l0,7.19l-6.76,0l0,-7.19l-7.18,0l0,-6.77z" fill="#ff0000" id="svg_35" stroke="#000000"/>
   <path d="m15.19,18.46l3.27,0l0,-3.27l3.08,0l0,3.27l3.27,0l0,3.08l-3.27,0l0,3.27l-3.08,0l0,-3.27l-3.27,0l0,-3.08z" fill="#ffffff" id="svg_36" stroke="#ff0000"/>
  </g>
 </g>
</svg>